<svg width="16" height="16" viewBox="0 0 20 20" fill="none" style="margin-right: 4px; height: 16px; width: 16px;" xmlns="http://www.w3.org/2000/svg"><g clip-path="url(#SuperCoinIcon_a)"><path d="M10 20C15.5228 20 20 15.5228 20 10C20 4.47715 15.5228 0 10 0C4.47715 0 0 4.47715 0 10C0 15.5228 4.47715 20 10 20Z" fill="#F7C351"></path><path d="M8.6729 11.8675C7.83625 11.8622 6.13386 11.8746 5.29721 11.8675C5.17508 11.864 5.0001 11.8534 4.79412 11.8216C3.24477 11.5848 1.81075 10.447 1.40792 9.92053C0.2614 8.42047 0.430917 5.78964 2.15343 3.70653C2.72213 3.00332 3.84131 1.816 5.64585 0.967915C6.2182 0.699354 7.55611 0.135731 9.37523 0.0208855C10.5418 -0.0533221 11.6706 0.109276 12.348 0.278911C10.8461 4.18772 10.2532 8.00873 8.67108 11.8693L8.6729 11.8675Z" fill="url(#SuperCoinIcon_b)"></path><path d="M11.5269 8.16978C12.3635 8.16285 14.2827 8.08721 15.1194 8.08205C15.2421 8.07353 15.9275 8.11405 16.1339 8.14284C17.6866 8.35694 18.3952 8.9781 18.8057 9.49868C19.974 10.9818 19.7875 13.5634 18.1599 15.8014C17.6015 16.5128 16.4554 17.9562 14.6634 18.8306C14.0951 19.1075 12.7106 19.8064 10.8933 19.9478C9.72796 20.039 8.74183 19.9632 8.06201 19.8035C9.5876 15.9202 10.0031 12.0512 11.5287 8.16798L11.5269 8.16978Z" fill="url(#SuperCoinIcon_c)"></path><path d="M11.9485 1.31386L4.50703 9.3967C3.54824 10.4376 4.11063 11.9057 5.53189 11.8688L9.82469 11.9089C10.0825 11.9105 10.2694 12.1547 10.2001 12.4021L8.47916 18.6618L15.8594 10.7058C16.7844 9.70832 16.0737 8.094 14.7073 8.094L10.4725 8.1711C10.2082 8.17592 10.0148 7.92695 10.0857 7.67476C10.5369 6.09578 11.8905 1.37169 11.9485 1.31547V1.31226V1.31386Z" fill="white"></path><mask id="SuperCoinIcon_d" maskUnits="userSpaceOnUse" x="0" y="0" width="20" height="20" style="mask-type: alpha;"><path d="M10 20C15.5228 20 20 15.5228 20 10C20 4.47715 15.5228 0 10 0C4.47715 0 0 4.47715 0 10C0 15.5228 4.47715 20 10 20Z" fill="#F7C351"></path></mask><g mask="url(#SuperCoinIcon_d)"><rect x="-9.40979" y="6.24756" width="0.689673" height="22.375" transform="rotate(-32.6122 -9.40979 6.24756)" fill="#FFF7CF"></rect><rect x="-8.52368" y="5.68066" width="3.23093" height="22.375" transform="rotate(-32.6122 -8.52368 5.68066)" fill="#FFF7CF"></rect></g></g><defs><linearGradient id="SuperCoinIcon_b" x1="11.1745" y1="3.86349" x2="0.677308" y2="6.99807" gradientUnits="userSpaceOnUse"><stop stop-color="#F7C351"></stop><stop offset="1" stop-color="#EB7B39"></stop></linearGradient><linearGradient id="SuperCoinIcon_c" x1="9.0015" y1="15.9175" x2="19.4518" y2="12.6299" gradientUnits="userSpaceOnUse"><stop stop-color="#F7C351"></stop><stop offset="1" stop-color="#EB7B39"></stop></linearGradient><clipPath id="SuperCoinIcon_a"><rect width="20" height="20" fill="white"></rect></clipPath></defs></svg>